<?xml version="1.0" encoding="UTF-8"?>
<svg id="Layer_1" xmlns="http://www.w3.org/2000/svg" width="1200" height="1200" version="1.1" viewBox="0 0 1200 1200">
  <!-- Generator: Adobe Illustrator 29.1.0, SVG Export Plug-In . SVG Version: 2.1.0 Build 142)  -->
  <defs>
    <style>
      .st0 {
        fill: #fff;
      }
    </style>
  </defs>
  <rect width="1200" height="1200"/>
  <g>
    <path class="st0" d="M343.5,658.4v-204.3h61v203.3c0,24.8-4.3,44.5-12.9,59-14.5,24.6-40.7,36.9-78.7,36.9s-63.3-9.9-76.3-29.8c-12.9-19.9-19.4-47-19.4-81.3v-6.7h57.7v6.7c.5,22.6,3,38.5,7.4,47.6,4.4,9.2,13.9,13.8,28.4,13.8s23.9-5,28.5-15.1c2.8-5.9,4.2-16,4.2-30.1Z"/>
    <path class="st0" d="M571,704c14.4,0,26.1-1.6,35.1-4.8,17-6.1,25.6-17.4,25.6-33.9s-4.2-17.1-12.7-22.4c-8.5-5.2-21.7-9.7-39.8-13.7l-30.9-6.9c-30.4-6.9-51.4-14.3-63-22.4-19.7-13.5-29.5-34.5-29.5-63.2s9.5-47.9,28.5-65.2c19-17.3,47-26,83.8-26s57,8.2,78.8,24.5c21.7,16.3,33.1,40,34.2,71h-58.6c-1.1-17.6-8.7-30-23-37.4-9.5-4.9-21.3-7.3-35.5-7.3s-28.3,3.2-37.6,9.5c-9.4,6.3-14.1,15.2-14.1,26.5s4.6,18.2,13.9,23.4c5.9,3.4,18.6,7.5,38,12.1l50.3,12.1c22.1,5.3,38.7,12.4,49.9,21.2,17.4,13.7,26.2,33.6,26.2,59.6s-10.2,48.8-30.6,66.5c-20.4,17.6-49.2,26.4-86.5,26.4s-68-8.7-89.7-26.1c-21.8-17.4-32.7-41.2-32.7-71.6h58.2c1.8,13.3,5.5,23.3,10.9,29.9,9.9,12,26.9,18,50.9,18Z"/>
    <path class="st0" d="M941.7,724.4c-21.8,19.9-49.7,29.9-83.6,29.9s-75-13.5-99.1-40.4c-24-27.1-36.1-64.2-36.1-111.3s13.7-90.3,41-117.9c23.8-24,54-36.1,90.7-36.1s85.1,16.1,107.8,48.3c12.5,18.1,19.3,36.3,20.2,54.5h-61c-4-14-9-24.6-15.3-31.7-11.1-12.7-27.5-19-49.3-19s-39.7,8.9-52.5,26.8c-12.8,17.9-19.2,43.2-19.2,76s6.8,57.3,20.3,73.6c13.5,16.3,30.7,24.5,51.6,24.5s37.7-7,48.9-21c6.2-7.5,11.4-18.8,15.5-33.9h60.4c-5.3,31.8-18.8,57.7-40.4,77.7Z"/>
  </g>
</svg>